# xmcd
# Track frame offsets:
# 150
# 16274
# 36300
# 52093
# 71068
# 84718
# 98153
# 116304
# 134362
# 150036
# 167510
# 182061
# 201392
# 220551
# 240329
#
# Disc length: 3443 seconds
# Revision: 0
# Processed by: cddbd v1.5.1PL0 Copyright (c) Steve Scherf et al.
# Submitted via: VisiTrax 2.9.10.228 - For more info visit www.synapsa.com
#
DISCID=c00d710f
DTITLE=Various Artist - CB60004
DYEAR=1900
DGENRE=Karaoke
TTITLE0=Brooks and Dunn - My Maria
TTITLE1=Judd, Wynonna - My Angel Is Here
TTITLE2=Berry, John - Change My Mind
TTITLE3=Hill, Faith - I Can't Do That Anymore
TTITLE4=Rimes, LeAnn - Blue
TTITLE5=Diffie, Joe - Whole Lotta Gone
TTITLE6=Hill, Faith - You Can't Lose Me
TTITLE7=Gill, Vince - Worlds Apart
TTITLE8=Strait, George - Carried Away
TTITLE9=Raye, Collin - Love Remains
TTITLE10=McGraw, Tim - She Never Lets It Go To Her Heart
TTITLE11=Twain, Shania - Home Ain't Where His Heart Is
TTITLE12=Herndon, Ty - Living In A Moment
TTITLE13=Strait, George - I Can Still Make Cheyenne
TTITLE14=Murphy, David Lee - Road You Leave Behind, The
EXTD=
EXTT0=
EXTT1=
EXTT2=
EXTT3=
EXTT4=
EXTT5=
EXTT6=
EXTT7=
EXTT8=
EXTT9=
EXTT10=
EXTT11=
EXTT12=
EXTT13=
EXTT14=
PLAYORDER=
